<?xml version="1.0" standalone="no"?>
<!DOCTYPE svg PUBLIC "-//W3C//DTD SVG 20010904//EN"
 "http://www.w3.org/TR/2001/REC-SVG-20010904/DTD/svg10.dtd">
<svg version="1.0" xmlns="http://www.w3.org/2000/svg"
 width="1200.000000pt" height="1200.000000pt" viewBox="0 0 1200.000000 1200.000000"
 preserveAspectRatio="xMidYMid meet">

<g transform="translate(0.000000,1200.000000) scale(0.100000,-0.100000)"
fill="#000000" stroke="none">
<path stroke="#f4d160" fill="#f4d160"
       fill-opacity="1" stroke-opacity="1" d="M5980 9620 c-897 -50 -1697 -416 -2331 -1066 -141 -146 -261 -295
-384 -479 -317 -476 -502 -992 -566 -1575 -17 -151 -17 -565 -1 -705 67 -568
229 -1032 530 -1514 l65 -103 -17 -62 c-49 -176 -187 -471 -303 -646 -133
-201 -247 -329 -525 -585 -68 -63 -77 -75 -83 -117 -16 -104 15 -142 178 -221
194 -95 363 -139 590 -157 404 -31 808 86 1128 327 87 66 254 228 308 297 25
34 5 39 203 -48 307 -135 654 -225 1029 -268 138 -15 554 -15 699 1 584 64
1099 249 1575 566 184 123 333 243 479 384 603 588 965 1326 1051 2146 19 175
22 517 6 685 -69 723 -358 1401 -827 1940 -378 434 -831 755 -1371 969 -429
170 -966 256 -1433 231z m545 -346 c489 -55 982 -240 1403 -527 777 -530 1275
-1374 1363 -2310 17 -182 7 -574 -19 -742 -159 -1032 -783 -1893 -1709 -2359
-657 -331 -1420 -419 -2137 -247 -236 57 -466 143 -727 271 -68 34 -135 60
-152 60 -62 0 -113 -36 -174 -123 -109 -155 -231 -275 -378 -371 -103 -68
-147 -90 -264 -133 -162 -58 -249 -75 -426 -80 -192 -6 -291 7 -464 63 -10 3
11 31 65 87 303 311 513 662 666 1111 43 127 52 163 52 226 l1 75 -71 105
c-140 207 -273 464 -352 680 -199 543 -243 1149 -127 1721 233 1145 1089 2070
2218 2395 389 112 810 145 1232 98z"/>
<path stroke="#222f39" fill="#222f39"
       fill-opacity="1" stroke-opacity="1" d="M6026 7844 c-53 -19 -20 7 -823 -661 -640 -534 -713 -598 -728 -637
-24 -63 -18 -327 8 -353 15 -16 41 -18 210 -21 115 -2 197 -7 204 -14 10 -8
13 -128 13 -567 0 -375 4 -569 11 -596 16 -57 73 -110 141 -130 47 -13 104
-15 376 -13 298 3 321 4 341 22 20 19 21 27 21 295 0 152 5 307 10 344 19 133
83 221 199 276 47 22 69 26 141 26 73 -1 93 -5 138 -28 75 -39 127 -90 159
-155 l28 -57 5 -335 c3 -184 9 -343 14 -352 4 -10 24 -22 44 -28 50 -13 607
-13 670 1 59 12 121 61 148 116 18 35 19 76 24 613 l5 575 196 5 c257 7 239
-9 239 205 0 152 -1 164 -22 195 -13 19 -122 117 -243 218 -1091 912 -1226
1024 -1276 1047 -44 20 -69 25 -134 24 -44 0 -98 -7 -119 -15z"/>
<path stroke="#222f39" fill="#222f39"
       fill-opacity="1" stroke-opacity="1" d="M6764 7830 c-45 -18 -64 -58 -64 -135 l0 -72 289 -240 288 -241 8
267 c4 147 4 289 0 316 -16 109 -31 115 -297 114 -112 0 -213 -4 -224 -9z"/>
</g>
</svg>
